<?xml version="1.0" encoding="UTF-8" standalone="no"?>
<svg width="98px" height="40px" viewBox="0 0 98 40" version="1.1" xmlns="http://www.w3.org/2000/svg" xmlns:xlink="http://www.w3.org/1999/xlink" xmlns:sketch="http://www.bohemiancoding.com/sketch/ns">
    <!-- Generator: Sketch 3.5.2 (25235) - http://www.bohemiancoding.com/sketch -->
    <title>Logo</title>
    <desc>Created with Sketch.</desc>
    <defs></defs>
    <g id="Symbols" stroke="none" stroke-width="1" fill="none" fill-rule="evenodd" sketch:type="MSPage">
        <g id="Notes" sketch:type="MSArtboardGroup" transform="translate(-79.000000, -387.000000)" fill="#5C4E70">
            <g id="Logo" sketch:type="MSLayerGroup" transform="translate(79.000000, 387.000000)">
                <path d="M36.7728181,19.5091446 C36.7432816,19.1214129 36.7570967,18.7682818 36.8142632,18.4497465 C36.89007,18.2278342 36.9870561,17.9630888 37.1052242,17.6555025 C37.2233924,17.3479161 37.364968,17.0101389 37.5299554,16.6421607 C37.9769784,15.7552246 38.3660259,15.028413 38.6971096,14.4617043 C39.0281934,13.8949955 39.3375318,13.4494338 39.6251343,13.1250057 C39.9127367,12.8005777 40.1799889,12.5644623 40.4268989,12.4166527 C40.673809,12.268843 40.9483025,12.1552729 41.2503876,12.0759389 C41.8824254,11.9123572 42.1661091,11.9731243 42.1014471,12.258242 C42.036785,12.5433596 41.7681328,12.9752303 41.2954824,13.553867 C40.3457235,14.6858582 39.6300661,15.6788023 39.1484887,16.532729 C38.6669113,17.3866558 38.4411577,18.3062505 38.471221,19.2915408 C38.5324898,20.4538061 38.7269776,21.1494111 39.0546903,21.3783766 C39.382403,21.6073421 39.7296332,21.3766754 40.0963914,20.6863694 C40.5757398,19.8198016 41.009097,19.0591093 41.3964758,18.4042696 C41.7838547,17.7494299 42.1592431,17.1488489 42.5226523,16.6025085 C42.8860616,16.0561681 43.2597755,15.5275688 43.6438054,15.0166947 C44.0278353,14.5058206 44.458398,13.9737143 44.9355064,13.4203597 C45.7637592,12.4140661 46.5724882,11.5415669 47.3617176,10.8028361 C48.150947,10.0641053 48.7919021,9.62524006 49.2846022,9.48622736 C49.3960724,9.46657216 49.5209145,9.52276253 49.6591322,9.65480016 C49.79735,9.78683779 49.9249755,9.94029163 50.0420125,10.1151663 C50.1590496,10.2900409 50.2562991,10.4749187 50.3337638,10.6698051 C50.4112285,10.8646915 50.458876,11.0126968 50.4767077,11.1138253 C50.5257448,11.3919289 50.3066946,11.860672 49.8195503,12.5200689 C48.8408039,13.8135806 48.0886326,15.0475733 47.5630138,16.222084 C47.0373951,17.3965947 46.5956601,18.6801203 46.2377956,20.0726992 C46.0516165,20.8093688 46.0702713,21.2818168 46.2937607,21.4900574 C46.5172501,21.6982981 46.888164,21.5612095 47.4065137,21.0787876 C48.1255143,20.4306445 48.8333593,19.7193068 49.5300702,18.9447531 C50.2218573,18.1756733 51.1136534,17.2556833 52.2054849,16.1847557 C52.2620333,16.0283089 52.3265523,15.8557419 52.3990426,15.667053 C52.5172107,15.3594667 52.6587864,15.0216894 52.8237738,14.6537112 C53.2707967,13.7667751 53.6598443,13.0399635 53.990928,12.4732548 C54.3220118,11.906546 54.6313502,11.4609843 54.9189526,11.1365562 C55.2065551,10.8121282 55.4738073,10.5760128 55.7207173,10.4282032 C55.9676274,10.2803935 56.2421208,10.1668234 56.544206,10.0874894 C57.1762438,9.92390773 57.4599275,9.9846748 57.3952654,10.2697925 C57.3306034,10.5549101 57.0619512,10.9867808 56.5893007,11.5654175 C55.6395419,12.6974087 54.9238845,13.6903528 54.4423071,14.5442795 C53.9607297,15.3982063 53.7349761,16.317801 53.7650394,17.3030913 C53.8263082,18.4653566 54.020796,19.1609616 54.3485087,19.3899271 C54.6762213,19.6188926 55.0234516,19.3882259 55.3902098,18.6979199 C55.8695582,17.8313521 56.3029153,17.0706598 56.6902942,16.4158201 C57.0776731,15.7609804 57.4530615,15.1603994 57.8164707,14.614059 C58.17988,14.0677186 58.5535939,13.5391193 58.9376238,13.0282452 C59.3216537,12.5173711 59.7522164,11.9852648 60.2293248,11.4319103 C61.0575776,10.4256166 61.8663066,9.55311745 62.655536,8.8143866 C63.4447654,8.07565576 64.0857205,7.63679057 64.5784206,7.49777787 C64.6898908,7.47812266 64.8147329,7.53431303 64.9529506,7.66635067 C65.0911684,7.7983883 65.2187939,7.95184214 65.3358309,8.12671678 C65.452868,8.30159142 65.5501174,8.48646918 65.6275822,8.68135559 C65.7050469,8.87624201 65.7526944,9.02424728 65.7705261,9.12537583 C65.8195632,9.40347937 65.6005129,9.87222255 65.1133687,10.5316194 C64.1346223,11.8251311 63.382451,13.0591238 62.8568322,14.2336345 C62.3312135,15.4081452 61.8894785,16.6916708 61.531614,18.0842497 C61.3454349,18.8209193 61.3640897,19.2933673 61.5875791,19.5016079 C61.8110684,19.7098486 62.1819824,19.57276 62.7003321,19.0903381 C63.4193326,18.442195 64.1271777,17.7308573 64.8238886,16.9563036 C65.4837313,16.2227374 66.3255379,15.3518761 67.3493315,14.3436963 C67.3675128,13.3839844 67.6300315,12.3339714 68.1368908,11.1936403 C69.5548865,8.15431286 70.1123201,6.49253113 71.7520477,6.17733472 C72.6438093,6.02009309 72.909096,6.22095999 72.5479157,6.77994146 C72.1588679,7.34383673 71.7280252,7.91509414 71.2553748,8.49373081 C70.7827243,9.07236748 69.633354,11.4511318 69.4527528,12.0564769 C69.2721517,12.661822 69.1667878,13.4494006 69.1366581,14.4192363 C69.1188043,14.9698165 69.1731275,15.4815938 69.2996294,15.9545838 C69.4261312,16.4275737 69.6053021,16.8326168 69.8371473,17.169725 C70.0689925,17.5068332 70.3339992,17.7468512 70.6321753,17.8897861 C70.9303515,18.032721 71.2538869,18.0343256 71.6027913,17.8945997 C71.9516957,17.7548739 72.3217752,17.5723138 72.7130409,17.3469139 C73.1043067,17.1215141 73.5228792,16.8065813 73.968771,16.4021061 C74.4146629,15.997631 74.898451,15.4822074 75.4201496,14.8558199 C75.9222603,14.2529512 76.4801257,13.5134869 77.0937616,12.6374064 C77.1206065,12.497491 77.1523053,12.3564136 77.188858,12.2141741 C77.4274343,11.2857881 77.8201107,10.3758621 78.3668991,9.48436871 C78.9136874,8.59287533 79.5830807,7.74494481 80.3750991,6.94055171 C81.1671174,6.13615862 82.0151326,5.44572379 82.9191702,4.86922652 C83.5389542,4.47319175 84.1266785,4.18056856 84.6823605,3.99134815 C85.2380426,3.80212773 85.7477322,3.71877265 86.2114447,3.74128039 C86.6751573,3.76378813 87.0547014,3.87933886 87.3500886,4.08793604 C87.6454758,4.29653323 87.82883,4.60308434 87.9001568,5.00759857 C88.0383524,5.7913449 87.8608118,6.61771803 87.3675296,7.48674274 C86.8742474,8.35576745 86.0278956,9.30007003 84.8284488,10.3196788 C84.5297015,10.5809015 84.1239481,10.887057 83.6111763,11.2381544 C83.0984046,11.5892519 82.5508065,11.9464862 81.9683659,12.3098681 C81.3859252,12.67325 80.795412,13.0315345 80.1968086,13.3847322 C79.5982052,13.73793 79.0776399,14.0447791 78.635097,14.3052886 L78.9460522,15.57993 C79.2458752,16.465518 79.6972995,17.0701995 80.3003387,17.3939926 C80.9033779,17.7177857 81.7237839,17.6448124 82.7615812,17.1750706 C83.6500049,16.8359402 84.6008474,16.1990606 85.6141372,15.2644127 C85.9855177,14.9218553 87.1542585,13.7561984 88.1403359,12.6292582 C89.1264133,11.5023181 89.3754009,11.2889447 90.4355773,10.0045315 C91.625738,8.56264099 95.6563934,3.00991955 97.1588074,1.30829429 C97.7529781,0.635340138 97.7077533,0.786543563 97.8512472,0.858423275 C97.994741,0.930302986 97.7870083,1.32384463 97.6073835,1.66025676 C96.6340313,3.48321035 94.4114537,6.92198817 91.8971882,10.102112 C88.9189342,13.8691034 87.1953109,15.8393344 85.9953041,16.9372465 C84.7952973,18.0351586 83.2029533,18.7004306 81.8653108,18.936293 C80.6948737,19.1426727 79.6888846,18.896454 78.8473133,18.1976294 C78.005742,17.4988049 77.4211309,16.383218 77.0934625,14.8508351 C77.0701635,14.7403983 77.0505306,14.6290843 77.0345638,14.5168929 C76.6320977,15.1688229 76.2355113,15.7586462 75.8447979,16.2863735 C75.334244,16.9759663 74.8337335,17.559508 74.3432513,18.0370162 C73.1660941,19.1830356 72.1124243,19.76636 71.1822103,19.7870068 C70.2519964,19.8076536 69.4697843,19.4046718 68.8355507,18.5780494 C68.1903201,17.7262409 67.7496055,16.7948615 67.5133979,15.7838904 C66.776872,16.7779715 66.1230832,17.608232 65.552015,18.2746927 C64.920515,19.0116798 64.3584179,19.6125978 63.8657068,20.0774649 C63.3729957,20.5423319 62.9460619,20.8913238 62.5848927,21.1244509 C62.2237235,21.357578 61.9060348,21.5113493 61.6318173,21.5857695 C61.2505874,21.705127 60.8997448,21.630134 60.5792791,21.3607884 C60.2588133,21.0914428 60.0545642,20.6256522 59.9665258,19.9634028 C59.9052349,19.4528462 59.9517955,18.7799074 60.1062092,17.9445661 C60.2606229,17.1092249 60.6248777,16.11959 61.1989846,14.9756318 C61.6883689,14.0030216 62.1599089,13.0922237 62.6136187,12.2432108 C63.0673286,11.3941979 63.5650667,10.3875432 64.1068482,9.22321666 C63.7991851,9.43387511 63.3346285,9.85467039 62.7131645,10.4856151 C62.0917004,11.1165598 61.4181292,11.9000575 60.6924307,12.8361317 C59.9667323,13.7722058 59.2262712,14.828176 58.4710251,16.004074 C57.7157791,17.1799719 57.0460947,18.3929029 56.4619519,19.6429035 C56.0617483,20.4694478 55.7259316,21.0500173 55.4544919,21.3846296 C55.1830522,21.7192418 54.9057698,21.8984732 54.6226364,21.9223291 C54.2559003,21.9609263 53.9022744,21.7886699 53.5617479,21.4055547 C53.2212215,21.0224394 52.9289132,20.5461083 52.6848143,19.976547 C52.4407153,19.4069857 52.26183,18.7998669 52.1481529,18.1551724 C52.1340645,18.075273 52.121517,17.9966035 52.1105103,17.9191639 C51.4183509,18.8484437 50.8009176,19.6297638 50.2581966,20.2631422 C49.6266967,21.0001293 49.0645995,21.6010473 48.5718884,22.0659144 C48.0791773,22.5307814 47.6522435,22.8797733 47.2910743,23.1129004 C46.9299051,23.3460275 46.6122165,23.4997988 46.3379989,23.574219 C45.956769,23.6935765 45.6059265,23.6185835 45.2854607,23.3492379 C44.9649949,23.0798923 44.7607458,22.6141017 44.6727074,21.9518523 C44.6114165,21.4412957 44.6579771,20.7683569 44.8123908,19.9330156 C44.9668045,19.0976744 45.3310593,18.1080395 45.9051663,16.9640813 C46.3945505,15.9914711 46.8660905,15.0806732 47.3198003,14.2316603 C47.7735102,13.3826474 48.2712484,12.3759927 48.8130298,11.2116662 C48.5053668,11.4223246 48.0408102,11.8431199 47.4193461,12.4740646 C46.797882,13.1050093 46.1243108,13.888507 45.3986124,14.8245812 C44.6729139,15.7606553 43.9324528,16.8166255 43.1772067,17.9925235 C42.4219607,19.1684214 41.7522764,20.3813524 41.1681336,21.631353 C40.7679299,22.4578973 40.4321132,23.0384668 40.1606735,23.3730791 C39.8892339,23.7076913 39.6119515,23.8869227 39.328818,23.9107786 C38.9620819,23.9493758 38.608456,23.7771194 38.2679296,23.3940042 C37.9274031,23.0108889 37.6350948,22.5345578 37.3909959,21.9649965 C37.2164527,21.5577312 37.0752531,21.1312628 36.9673951,20.6855846 C35.7319407,22.6125851 34.5342704,24.1066821 33.3743505,25.1679178 C32.1743437,26.2658299 30.905538,26.9327072 29.5678956,27.1685696 C28.3974585,27.3749493 27.3914693,27.1287305 26.5498981,26.429906 C25.7083268,25.7310815 25.1237157,24.6154945 24.7960473,23.0831116 C24.6210682,22.2537148 24.6528664,21.3748366 24.8914427,20.4464506 C25.1300191,19.5180647 25.5226955,18.6081387 26.0694838,17.7166453 C26.6162722,16.8251519 27.2856655,15.9772214 28.0776838,15.1728283 C28.8697022,14.3684352 29.7177174,13.6780004 30.6217549,13.1015031 C31.241539,12.7054683 31.8292632,12.4128451 32.3849453,12.2236247 C32.9406274,12.0344043 33.450317,11.9510492 33.9140295,11.973557 C34.377742,11.9960647 34.7572862,12.1116154 35.0526734,12.3202126 C35.3480606,12.5288098 35.5314148,12.8353609 35.6027416,13.2398751 C35.7409372,14.0236215 35.5633966,14.8499946 35.0701144,15.7190193 C34.5768322,16.588044 33.7304804,17.5323466 32.5310335,18.5519554 C32.2322863,18.8131781 31.8265329,19.1193336 31.3137611,19.470431 C30.8009893,19.8215284 30.2533913,20.1787627 29.6709506,20.5421447 C29.08851,20.9055266 28.4979968,21.263811 27.8993934,21.6170088 C27.30079,21.9702065 26.7802247,22.2770556 26.3376818,22.5375652 L26.648637,23.8122066 C26.9484599,24.6977946 27.3998843,25.3024761 28.0029235,25.6262691 C28.6059627,25.9500622 29.4263686,25.877089 30.464166,25.4073472 C31.3525897,25.0682168 32.3034322,24.4313372 33.316722,23.4966893 C34.2998163,22.5898934 35.4518375,21.2607245 36.7728181,19.5091446 Z M83.421234,9.45712376 C84.5877953,8.49544996 85.3243475,7.66174531 85.6309127,6.95598481 C85.866129,6.49741876 85.9881987,6.13049621 85.9971257,5.85520614 C86.0060526,5.57991607 85.9414081,5.37625528 85.8031904,5.24421764 C85.6649726,5.11218001 85.4693482,5.06195352 85.2163113,5.09353666 C84.9632744,5.1251198 84.7063379,5.21604329 84.4454941,5.36630986 C83.57936,5.83185097 82.7823467,6.36340293 82.0544303,6.96098167 C81.326514,7.55856042 80.6900112,8.1856321 80.1449029,8.84221552 C79.5997945,9.49879895 79.1739642,10.1799607 78.867399,10.8857212 C78.5608338,11.5914817 78.3958378,12.2853039 78.3724061,12.9672085 C80.5717468,11.5888141 82.2546726,10.4187976 83.421234,9.45712376 Z M71.7200352,2.52504005 C71.8791317,2.00298611 72.1959177,1.47717808 72.6704027,0.947600195 C73.1448877,0.418022309 73.6888588,0.105611504 74.3023322,0.0103584103 C74.4179934,0.000689069735 74.5500627,0.0775793524 74.6985443,0.241031565 C74.8470259,0.404483778 74.9305299,0.623612009 74.9490589,0.898422833 C74.9675878,1.17323366 74.9080235,1.49539425 74.7703642,1.86491429 C74.6327049,2.23443432 74.3513667,2.60967982 73.926341,2.99066204 C73.568078,3.3032538 73.2320104,3.50878219 72.9181279,3.60725337 C72.6042454,3.70572456 72.344905,3.72112476 72.1400988,3.65345445 C71.9352926,3.58578415 71.7893527,3.45509635 71.7022745,3.26138715 C71.6151964,3.06767795 71.6211165,2.82223137 71.7200352,2.52504005 Z M31.3474298,17.4109217 C32.5139912,16.4492479 33.2505434,15.6155433 33.5571086,14.9097828 C33.7923249,14.4512167 33.9143946,14.0842942 33.9233215,13.8090041 C33.9322484,13.533714 33.867604,13.3300533 33.7293863,13.1980156 C33.5911685,13.065978 33.3955441,13.0157515 33.1425072,13.0473346 C32.8894703,13.0789178 32.6325338,13.1698413 32.3716899,13.3201078 C31.5055558,13.7856489 30.7085426,14.3172009 29.9806262,14.9147796 C29.2527099,15.5123584 28.6162071,16.1394301 28.0710987,16.7960135 C27.5259904,17.4525969 27.1001601,18.1337587 26.7935949,18.8395192 C26.4870297,19.5452797 26.3220337,20.2391019 26.298602,20.9210065 C28.4979427,19.5426121 30.1808685,18.3725955 31.3474298,17.4109217 Z M13.5440029,6.659364 C12.7403018,6.82714637 11.9293661,7.03530573 11.1111712,7.28384832 C10.2929764,7.53239092 9.42100848,7.84254919 8.49524136,8.21433244 C7.56947424,8.5861157 6.57460764,9.05480028 5.51061171,9.62040025 C4.44661579,10.1860002 3.2669839,10.8697385 1.97168067,11.6716356 C1.17019751,12.1779134 0.887068326,12.2017689 1.12228461,11.7432029 C1.27277824,11.4559849 1.37394212,11.2556724 1.42577931,11.1422593 C1.47761649,11.0288462 1.52471504,10.9293042 1.56707637,10.8436302 C1.60943771,10.7579562 1.66127411,10.6445448 1.72258715,10.5033927 C1.78390019,10.3622406 1.89704871,10.1076792 2.06203611,9.73970102 C6.47185135,7.37197192 10.5438238,5.85890539 14.2780756,5.20045604 C18.4582083,4.46338587 21.5269086,4.75646082 23.4842688,6.07968969 C24.1720196,6.55798907 24.7290601,7.15056452 25.1554071,7.85743379 C25.5817541,8.56430307 25.8916083,9.34383703 26.084979,10.1960591 C26.2783498,11.0482811 26.3415776,11.9364715 26.2746645,12.8606568 C26.2077514,13.7848421 26.024913,14.7033866 25.7261436,15.6163181 C25.2668448,16.9225099 24.5366883,18.1591377 23.5356523,19.3262386 C22.5346162,20.4933396 21.2747153,21.5366298 19.7559116,22.4561407 C18.237108,23.3756515 16.4747752,24.1360679 14.4688605,24.7374126 C12.4629458,25.3387573 10.2254939,25.7267635 7.75643771,25.9014428 L5.06130989,33.6388644 C5.34666122,33.9535039 5.48849475,34.2282745 5.48681474,34.4631845 C5.48513472,34.6980945 5.42298261,34.9566977 5.30035654,35.2390019 C5.08854988,35.667372 4.86615622,36.1171538 4.6331689,36.5883609 C4.40018157,37.0595681 4.10978901,37.6125773 3.76198251,38.2474052 C3.43312771,38.826755 3.18649584,39.0983361 3.0220795,39.0621566 C2.85766317,39.0259772 2.74760016,38.686952 2.69188718,38.0450709 C2.66292173,37.5548827 2.8368445,36.5857746 3.21366068,35.1377175 C3.59047687,33.6896605 5.51584019,27.8606145 6.42216196,25.6674865 C5.91720813,25.5740462 5.50283006,25.4646376 5.17901531,25.3392575 C4.85520056,25.2138775 4.56176673,25.0570754 4.29870501,24.8688465 C4.06796877,24.700986 3.96291808,24.4718652 3.9835498,24.1814771 C4.00418153,23.8910891 4.19898252,23.5699946 4.56795863,23.2181841 C4.78756112,22.9969849 5.0559278,22.76719 5.37306673,22.5287925 C5.69020565,22.290395 6.02461678,22.0685055 6.37631014,21.8631175 C6.7280035,21.6577294 7.07718265,21.4788546 7.42385809,21.3264877 C7.77053352,21.1741208 8.07874644,21.0480881 8.3485061,20.9483858 L13.5440029,6.659364 Z M8.15370517,24.377865 C10.1958322,24.2263285 12.0035725,23.927126 13.5769802,23.4802485 C15.1503878,23.033371 16.447055,22.5245047 17.4670207,21.9536344 C18.6731433,21.2978032 19.7672249,20.5770141 20.7492982,19.7912456 C21.7313715,19.0054771 22.538986,18.1266575 23.1721659,17.1547604 C23.8053459,16.1828634 24.2328618,15.1038705 24.4547264,13.9177493 C24.6765911,12.7316282 24.6420814,11.3952214 24.3511963,9.90848898 C24.2442062,9.30171763 23.9619336,8.71934574 23.5043701,8.16135583 C23.0468066,7.60336592 22.3913911,7.14544175 21.5381039,6.78756955 C20.6848168,6.42969736 19.6125032,6.21472426 18.3211311,6.14264381 C17.0297589,6.07056335 15.4945632,6.20440382 13.7154979,6.54416924 C13.8838011,7.00978848 13.9743527,7.48259306 13.9871554,7.96259714 C13.9999581,8.44260123 13.854748,9.12641766 13.5515207,10.0140669 L9.92285853,20.2339106 L13.0462486,19.3703559 C13.2925987,19.3008495 13.425522,19.3621319 13.4450227,19.5542048 C13.4645233,19.7462778 13.297595,19.8995338 12.9442327,20.0139775 L9.57504271,21.194588 L8.15370517,24.377865 Z" id="Path" sketch:type="MSShapeGroup"></path>
                <path d="M35.9423097,20.2638615 C35.9127732,19.8761299 35.9265882,19.5229988 35.9837547,19.2044635 C36.0595616,18.9825512 36.1565476,18.7178058 36.2747157,18.4102195 C36.3928839,18.1026331 36.5344595,17.7648559 36.6994469,17.3968777 C37.1464699,16.5099415 37.5355174,15.78313 37.8666012,15.2164213 C38.1976849,14.6497125 38.5070234,14.2041508 38.7946258,13.8797227 C39.0822282,13.5552946 39.3494804,13.3191793 39.5963905,13.1713696 C39.8433005,13.02356 40.117794,12.9099899 40.4198791,12.8306559 C41.0519169,12.6670742 41.3356006,12.7278413 41.2709386,13.0129589 C41.2062766,13.2980766 40.9376244,13.7299473 40.4649739,14.308584 C39.515215,15.4405752 38.7995576,16.4335193 38.3179802,17.287446 C37.8364029,18.1413728 37.6106492,19.0609675 37.6407125,20.0462578 C37.7019813,21.2085231 37.8964692,21.9041281 38.2241818,22.1330936 C38.5518945,22.3620591 38.8991247,22.1313923 39.2658829,21.4410864 C39.7452313,20.5745186 40.1785885,19.8138262 40.5659674,19.1589866 C40.9533462,18.5041469 41.3287346,17.9035659 41.6921439,17.3572255 C42.0555531,16.8108851 42.4292671,16.2822858 42.813297,15.7714117 C43.1973269,15.2605376 43.6278895,14.7284313 44.1049979,14.1750767 C44.9332508,13.1687831 45.7419797,12.2962839 46.5312091,11.5575531 C47.3204385,10.8188222 47.9613936,10.379957 48.4540937,10.2409443 C48.5655639,10.2212891 48.690406,10.2774795 48.8286238,10.4095171 C48.9668415,10.5415548 49.094467,10.6950086 49.2115041,10.8698833 C49.3285411,11.0447579 49.4257906,11.2296357 49.5032553,11.4245221 C49.58072,11.6194085 49.6283675,11.7674138 49.6461992,11.8685423 C49.6952364,12.1466458 49.4761861,12.615389 48.9890418,13.2747859 C48.0102954,14.5682976 47.2581241,15.8022902 46.7325054,16.976801 C46.2068866,18.1513117 45.7651516,19.4348373 45.4072872,20.8274162 C45.221108,21.5640858 45.2397629,22.0365338 45.4632522,22.2447744 C45.6867416,22.453015 46.0576555,22.3159264 46.5760053,21.8335045 C47.2950058,21.1853615 48.0028509,20.4740238 48.6995618,19.6994701 C49.3913489,18.9303903 50.2831449,18.0104002 51.3749764,16.9394727 C51.4315248,16.7830259 51.4960438,16.6104589 51.5685341,16.42177 C51.6867023,16.1141836 51.8282779,15.7764064 51.9932653,15.4084282 C52.4402883,14.521492 52.8293358,13.7946805 53.1604195,13.2279718 C53.4915033,12.661263 53.8008418,12.2157013 54.0884442,11.8912732 C54.3760466,11.5668451 54.6432988,11.3307298 54.8902089,11.1829201 C55.1371189,11.0351105 55.4116124,10.9215404 55.7136975,10.8422064 C56.3457353,10.6786247 56.629419,10.7393918 56.564757,11.0245094 C56.500095,11.3096271 56.2314427,11.7414978 55.7587923,12.3201345 C54.8090334,13.4521257 54.093376,14.4450698 53.6117986,15.2989965 C53.1302212,16.1529233 52.9044676,17.072518 52.9345309,18.0578083 C52.9957997,19.2200736 53.1902875,19.9156786 53.5180002,20.1446441 C53.8457129,20.3736096 54.1929431,20.1429428 54.5597013,19.4526369 C55.0390497,18.5860691 55.4724069,17.8253767 55.8597857,17.1705371 C56.2471646,16.5156974 56.622553,15.9151164 56.9859623,15.368776 C57.3493715,14.8224356 57.7230855,14.2938363 58.1071153,13.7829622 C58.4911452,13.2720881 58.9217079,12.7399818 59.3988163,12.1866272 C60.2270691,11.1803336 61.0357981,10.3078344 61.8250275,9.56910358 C62.6142569,8.83037274 63.255212,8.39150755 63.7479121,8.25249485 C63.8593823,8.23283964 63.9842244,8.28903001 64.1224421,8.42106765 C64.2606599,8.55310528 64.3882854,8.70655912 64.5053225,8.88143376 C64.6223595,9.0563084 64.719609,9.24118616 64.7970737,9.43607258 C64.8745384,9.63095899 64.9221859,9.77896426 64.9400176,9.88009282 C64.9890547,10.1581964 64.7700045,10.6269395 64.2828602,11.2863364 C63.3041138,12.5798481 62.5519425,13.8138408 62.0263237,14.9883515 C61.500705,16.1628622 61.05897,17.4463878 60.7011056,18.8389667 C60.5149264,19.5756363 60.5335813,20.0480843 60.7570706,20.2563249 C60.98056,20.4645655 61.3514739,20.327477 61.8698237,19.845055 C62.5888242,19.196912 63.2966693,18.4855743 63.9933801,17.7110206 C64.6532228,16.9774543 65.4950295,16.1065931 66.518823,15.0984133 C66.5370043,14.1387013 66.7995231,13.0886884 67.3063824,11.9483573 C68.724378,8.90902984 69.2818116,7.24724811 70.9215392,6.9320517 C71.8133008,6.77481007 72.0785875,6.97567697 71.7174073,7.53465844 C71.3283594,8.09855371 70.8975168,8.66981112 70.4248663,9.24844779 C69.9522158,9.82708447 68.8028456,12.2058488 68.6222444,12.8111939 C68.4416432,13.4165389 68.3362793,14.2041175 68.3061496,15.1739533 C68.2882958,15.7245335 68.342619,16.2363108 68.4691209,16.7093008 C68.5956228,17.1822907 68.7747936,17.5873337 69.0066388,17.924442 C69.238484,18.2615502 69.5034907,18.5015681 69.8016669,18.6445031 C70.099843,18.787438 70.4233784,18.7890425 70.7722828,18.6493167 C71.1211872,18.5095909 71.4912667,18.3270308 71.8825325,18.1016309 C72.2737982,17.8762311 72.6923707,17.5612983 73.1382626,17.1568231 C73.5841545,16.7523479 74.0679425,16.2369244 74.5896412,15.6105369 C75.0917518,15.0076682 75.6496173,14.2682039 76.2632531,13.3921234 C76.290098,13.252208 76.3217968,13.1111306 76.3583495,12.9688911 C76.5969258,12.0405051 76.9896023,11.1305791 77.5363906,10.2390857 C78.0831789,9.34759231 78.7525722,8.49966179 79.5445906,7.69526869 C80.336609,6.8908756 81.1846242,6.20044077 82.0886617,5.6239435 C82.7084457,5.22790874 83.29617,4.93528554 83.8518521,4.74606513 C84.4075341,4.55684471 84.9172238,4.47348963 85.3809363,4.49599737 C85.8446488,4.51850511 86.2241929,4.63405584 86.5195801,4.84265303 C86.8149673,5.05125021 86.9983216,5.35780132 87.0696483,5.76231556 C87.207844,6.54606188 87.0303033,7.37243501 86.5370211,8.24145972 C86.0437389,9.11048443 85.1973871,10.054787 83.9979403,11.0743958 C83.6991931,11.3356185 83.2934397,11.641774 82.7806679,11.9928714 C82.2678961,12.3439688 81.7202981,12.7012032 81.1378574,13.0645851 C80.5554167,13.427967 79.9649036,13.7862515 79.3663002,14.1394492 C78.7676968,14.492647 78.2471314,14.799496 77.8045885,15.0600056 L78.1155437,16.334647 C78.4153667,17.220235 78.866791,17.8249165 79.4698302,18.1487096 C80.0728694,18.4725026 80.8932754,18.3995294 81.9310727,17.9297876 C82.8194965,17.5906572 83.770339,16.9537776 84.7836288,16.0191297 C85.1550092,15.6765723 86.32375,14.5109154 87.3098274,13.3839752 C88.2959049,12.2570351 88.5448924,12.0436617 89.6050688,10.7592484 C90.7952296,9.31735797 94.8258849,3.76463653 96.328299,2.06301128 C96.9224696,1.39005712 96.8772449,1.54126054 97.0207387,1.61314026 C97.1642326,1.68501997 96.9564998,2.07856161 96.7768751,2.41497374 C95.8035228,4.23792733 93.5809452,7.67670515 91.0666797,10.856829 C88.0884257,14.6238203 86.3648024,16.5940514 85.1647956,17.6919635 C83.9647888,18.7898756 82.3724448,19.4551476 81.0348024,19.69101 C79.8643652,19.8973897 78.8583761,19.6511709 78.0168048,18.9523464 C77.1752335,18.2535219 76.5906224,17.1379349 76.262954,15.605552 C76.239655,15.4951153 76.2200221,15.3838013 76.2040554,15.2716099 C75.8015892,15.9235399 75.4050029,16.5133632 75.0142894,17.0410905 C74.5037355,17.7306833 74.003225,18.314225 73.5127429,18.7917331 C72.3355856,19.9377526 71.2819159,20.521077 70.3517019,20.5417238 C69.4214879,20.5623705 68.6392758,20.1593888 68.0050422,19.3327664 C67.3598116,18.4809578 66.9190971,17.5495785 66.6828894,16.5386074 C65.9463636,17.5326885 65.2925747,18.362949 64.7215065,19.0294097 C64.0900066,19.7663968 63.5279095,20.3673148 63.0351983,20.8321818 C62.5424872,21.2970489 62.1155534,21.6460407 61.7543842,21.8791679 C61.393215,22.112295 61.0755264,22.2660663 60.8013088,22.3404865 C60.4200789,22.459844 60.0692364,22.384851 59.7487706,22.1155054 C59.4283048,21.8461598 59.2240558,21.3803692 59.1360173,20.7181198 C59.0747264,20.2075632 59.1212871,19.5346244 59.2757007,18.6992831 C59.4301144,17.8639419 59.7943692,16.874307 60.3684762,15.7303488 C60.8578604,14.7577386 61.3294004,13.8469407 61.7831103,12.9979278 C62.2368201,12.1489148 62.7345583,11.1422602 63.2763397,9.97793364 C62.9686767,10.1885921 62.5041201,10.6093874 61.882656,11.2403321 C61.2611919,11.8712768 60.5876207,12.6547745 59.8619223,13.5908487 C59.1362238,14.5269228 58.3957627,15.582893 57.6405167,16.7587909 C56.8852706,17.9346889 56.2155863,19.1476199 55.6314435,20.3976205 C55.2312398,21.2241648 54.8954231,21.8047343 54.6239834,22.1393466 C54.3525438,22.4739588 54.0752614,22.6531902 53.7921279,22.6770461 C53.4253919,22.7156433 53.0717659,22.5433869 52.7312395,22.1602717 C52.390713,21.7771564 52.0984047,21.3008253 51.8543058,20.731264 C51.6102068,20.1617027 51.4313215,19.5545839 51.3176445,18.9098893 C51.303556,18.82999 51.2910085,18.7513205 51.2800018,18.6738809 C50.5878424,19.6031607 49.9704092,20.3844808 49.4276881,21.0178592 C48.7961882,21.7548462 48.2340911,22.3557643 47.7413799,22.8206313 C47.2486688,23.2854984 46.821735,23.6344902 46.4605658,23.8676174 C46.0993966,24.1007445 45.781708,24.2545158 45.5074904,24.328936 C45.1262605,24.4482935 44.775418,24.3733005 44.4549522,24.1039549 C44.1344864,23.8346092 43.9302374,23.3688187 43.8421989,22.7065693 C43.780908,22.1960127 43.8274687,21.5230739 43.9818823,20.6877326 C44.136296,19.8523914 44.5005508,18.8627565 45.0746578,17.7187983 C45.5640421,16.7461881 46.035582,15.8353902 46.4892919,14.9863773 C46.9430017,14.1373643 47.4407399,13.1307097 47.9825214,11.9663831 C47.6748583,12.1770416 47.2103017,12.5978369 46.5888376,13.2287816 C45.9673735,13.8597263 45.2938023,14.643224 44.5681039,15.5792982 C43.8424054,16.5153723 43.1019443,17.5713425 42.3466983,18.7472404 C41.5914522,19.9231384 40.9217679,21.1360694 40.3376251,22.38607 C39.9374214,23.2126143 39.6016047,23.7931838 39.3301651,24.1277961 C39.0587254,24.4624083 38.781443,24.6416397 38.4983096,24.6654955 C38.1315735,24.7040928 37.7779475,24.5318364 37.4374211,24.1487211 C37.0968947,23.7656059 36.8045863,23.2892748 36.5604874,22.7197135 C36.3859442,22.3124482 36.2447446,21.8859797 36.1368866,21.4403016 C34.9014323,23.3673021 33.7037619,24.861399 32.543842,25.9226348 C31.3438352,27.0205469 30.0750296,27.6874241 28.7373871,27.9232866 C27.56695,28.1296662 26.5609609,27.8834475 25.7193896,27.184623 C24.8778183,26.4857985 24.2932072,25.3702115 23.9655388,23.8378286 C23.7905598,23.0084318 23.8223579,22.1295536 24.0609343,21.2011676 C24.2995106,20.2727817 24.692187,19.3628556 25.2389754,18.4713623 C25.7857637,17.5798689 26.455157,16.7319384 27.2471754,15.9275453 C28.0391937,15.1231522 28.8872089,14.4327173 29.7912464,13.8562201 C30.4110305,13.4601853 30.9987548,13.1675621 31.5544368,12.9783417 C32.1101189,12.7891213 32.6198085,12.7057662 33.083521,12.7282739 C33.5472335,12.7507817 33.9267777,12.8663324 34.2221649,13.0749296 C34.5175521,13.2835268 34.7009063,13.5900779 34.7722331,13.9945921 C34.9104287,14.7783384 34.7328881,15.6047116 34.2396059,16.4737363 C33.7463237,17.342761 32.8999719,18.2870636 31.7005251,19.3066724 C31.4017778,19.5678951 30.9960244,19.8740506 30.4832526,20.225148 C29.9704808,20.5762454 29.4228828,20.9334797 28.8404422,21.2968616 C28.2580015,21.6602436 27.6674883,22.018528 27.0688849,22.3717258 C26.4702815,22.7249235 25.9497162,23.0317726 25.5071733,23.2922822 L25.8181285,24.5669235 C26.1179515,25.4525116 26.5693758,26.057193 27.172415,26.3809861 C27.7754542,26.7047792 28.5958602,26.6318059 29.6336575,26.1620642 C30.5220812,25.8229338 31.4729237,25.1860542 32.4862135,24.2514063 C33.4693078,23.3446104 34.621329,22.0154414 35.9423097,20.2638615 Z M82.5907255,10.2118407 C83.7572868,9.25016694 84.493839,8.41646229 84.8004042,7.71070179 C85.0356205,7.25213574 85.1576903,6.88521319 85.1666172,6.60992312 C85.1755441,6.33463305 85.1108996,6.13097226 84.9726819,5.99893462 C84.8344641,5.86689699 84.6388398,5.8166705 84.3858028,5.84825364 C84.1327659,5.87983678 83.8758294,5.97076027 83.6149856,6.12102684 C82.7488515,6.58656795 81.9518382,7.11811991 81.2239218,7.71569865 C80.4960055,8.3132774 79.8595027,8.94034908 79.3143944,9.5969325 C78.7692861,10.2535159 78.3434557,10.9346777 78.0368905,11.6404382 C77.7303253,12.3461987 77.5653293,13.0400209 77.5418976,13.7219255 C79.7412383,12.3435311 81.4241641,11.1735145 82.5907255,10.2118407 Z M70.8895267,3.27975703 C71.0486232,2.75770309 71.3654092,2.23189506 71.8398942,1.70231718 C72.3143792,1.17273929 72.8583503,0.860328486 73.4718238,0.765075391 C73.5874849,0.755406051 73.7195543,0.832296334 73.8680358,0.995748546 C74.0165174,1.15920076 74.1000214,1.37832899 74.1185504,1.65313981 C74.1370793,1.92795064 74.0775151,2.25011123 73.9398558,2.61963127 C73.8021965,2.9891513 73.5208582,3.3643968 73.0958325,3.74537902 C72.7375696,4.05797078 72.4015019,4.26349917 72.0876194,4.36197035 C71.7737369,4.46044154 71.5143965,4.47584174 71.3095903,4.40817143 C71.1047842,4.34050113 70.9588442,4.20981333 70.8717661,4.01610413 C70.7846879,3.82239493 70.7906081,3.57694835 70.8895267,3.27975703 Z M30.5169214,18.1656387 C31.6834827,17.2039649 32.4200349,16.3702603 32.7266001,15.6644998 C32.9618164,15.2059337 33.0838862,14.8390112 33.0928131,14.5637211 C33.10174,14.288431 33.0370955,14.0847702 32.8988778,13.9527326 C32.76066,13.820695 32.5650356,13.7704685 32.3119987,13.8020516 C32.0589618,13.8336348 31.8020253,13.9245582 31.5411815,14.0748248 C30.6750474,14.5403659 29.8780341,15.0719179 29.1501177,15.6694966 C28.4222014,16.2670754 27.7856986,16.8941471 27.2405903,17.5507305 C26.6954819,18.2073139 26.2696516,18.8884757 25.9630864,19.5942362 C25.6565212,20.2999967 25.4915252,20.9938188 25.4680935,21.6757235 C27.6674342,20.2973291 29.35036,19.1273125 30.5169214,18.1656387 Z M12.7134944,7.41408098 C11.9097934,7.58186335 11.0988576,7.79002271 10.2806627,8.0385653 C9.46246791,8.2871079 8.59050001,8.59726617 7.66473289,8.96904942 C6.73896576,9.34083268 5.74409916,9.80951726 4.68010324,10.3751172 C3.61610731,10.9407172 2.43647543,11.6244555 1.14117219,12.4263526 C0.339689038,12.9326304 0.0565598515,12.9564859 0.291776139,12.4979199 C0.442269762,12.2107019 0.543433648,12.0103893 0.595270832,11.8969763 C0.647108017,11.7835632 0.694206568,11.6840212 0.7365679,11.5983472 C0.778929232,11.5126731 0.830765638,11.3992618 0.892078675,11.2581097 C0.953391711,11.1169576 1.06654023,10.8623962 1.23152764,10.494418 C5.64134288,8.1266889 9.71331533,6.61362237 13.4475672,5.95517302 C17.6276998,5.21810285 20.6964002,5.5111778 22.6537603,6.83440667 C23.3415111,7.31270605 23.8985517,7.9052815 24.3248987,8.61215077 C24.7512456,9.31902005 25.0610998,10.098554 25.2544706,10.9507761 C25.4478413,11.8029981 25.5110692,12.6911885 25.4441561,13.6153737 C25.377243,14.539559 25.1944045,15.4581036 24.8956352,16.371035 C24.4363363,17.6772268 23.7061798,18.9138547 22.7051438,20.0809556 C21.7041077,21.2480566 20.4442068,22.2913468 18.9254031,23.2108577 C17.4065995,24.1303685 15.6442667,24.8907849 13.638352,25.4921296 C11.6324373,26.0934743 9.3949854,26.4814805 6.92592923,26.6561598 L4.23080141,34.3935813 C4.51615275,34.7082209 4.65798628,34.9829915 4.65630626,35.2179015 C4.65462625,35.4528114 4.59247414,35.7114146 4.46984806,35.9937188 C4.2580414,36.4220889 4.03564775,36.8718708 3.80266042,37.3430779 C3.5696731,37.814285 3.27928054,38.3672942 2.93147404,39.0021221 C2.60261924,39.5814719 2.35598737,39.8530531 2.19157103,39.8168736 C2.02715469,39.7806942 1.91709168,39.441669 1.8613787,38.7997879 C1.83241326,38.3095996 2.00633602,37.3404915 2.38315221,35.8924345 C2.75996839,34.4443775 4.68533172,28.6153314 5.59165349,26.4222035 C5.08669966,26.3287631 4.67232159,26.2193546 4.34850684,26.0939745 C4.02469209,25.9685944 3.73125826,25.8117923 3.46819654,25.6235635 C3.2374603,25.455703 3.13240961,25.2265821 3.15304133,24.9361941 C3.17367305,24.6458061 3.36847404,24.3247116 3.73745015,23.972901 C3.95705265,23.7517019 4.22541933,23.521907 4.54255825,23.2835095 C4.85969718,23.045112 5.1941083,22.8232225 5.54580166,22.6178344 C5.89749502,22.4124464 6.24667418,22.2335715 6.59334961,22.0812046 C6.94002504,21.9288377 7.24823797,21.802805 7.51799763,21.7031027 L12.7134944,7.41408098 Z M7.3231967,25.132582 C9.36532376,24.9810455 11.173064,24.6818429 12.7464717,24.2349655 C14.3198794,23.788088 15.6165466,23.2792217 16.6365122,22.7083514 C17.8426349,22.0525202 18.9367164,21.3317311 19.9187897,20.5459626 C20.900863,19.760194 21.7084775,18.8813744 22.3416575,17.9094774 C22.9748374,16.9375804 23.4023533,15.8585875 23.6242179,14.6724663 C23.8460826,13.4863451 23.8115729,12.1499384 23.5206879,10.663206 C23.4136977,10.0564346 23.1314251,9.47406272 22.6738616,8.91607281 C22.2162981,8.35808291 21.5608826,7.90015873 20.7075954,7.54228654 C19.8543083,7.18441434 18.7819947,6.96944125 17.4906226,6.89736079 C16.1992504,6.82528034 14.6640547,6.95912081 12.8849894,7.29888622 C13.0532926,7.76450547 13.1438442,8.23731004 13.1566469,8.71731413 C13.1694496,9.19731821 13.0242395,9.88113464 12.7210122,10.7687839 L9.09235006,20.9886275 L12.2157402,20.1250728 C12.4620902,20.0555665 12.5950136,20.1168489 12.6145142,20.3089218 C12.6340149,20.5009948 12.4670865,20.6542508 12.1137242,20.7686945 L8.74453423,21.949305 L7.3231967,25.132582 Z" id="Path" sketch:type="MSShapeGroup"></path>
            </g>
        </g>
    </g>
</svg>