<?xml version="1.0" encoding="UTF-8" standalone="no"?>
<svg width="136px" height="138px" viewBox="0 0 136 138" version="1.1" xmlns="http://www.w3.org/2000/svg" xmlns:xlink="http://www.w3.org/1999/xlink" xmlns:sketch="http://www.bohemiancoding.com/sketch/ns">
    <!-- Generator: Sketch 3.5.2 (25235) - http://www.bohemiancoding.com/sketch -->
    <title>server validation</title>
    <desc>Created with Sketch.</desc>
    <defs></defs>
    <g id="Welcome" stroke="none" stroke-width="1" fill="none" fill-rule="evenodd" sketch:type="MSPage">
        <g id="Desktop-HD" sketch:type="MSArtboardGroup" transform="translate(-206.000000, -1257.000000)">
            <g id="Page-2" sketch:type="MSLayerGroup" transform="translate(0.000000, 736.000000)">
                <g id="Block-1" transform="translate(106.000000, 509.000000)" sketch:type="MSShapeGroup">
                    <g id="server-validation" transform="translate(100.000000, 12.000000)">
                        <g id="Group">
                            <path d="M97.8375,137.369565 L2.94821429,137.369565 C1.20178571,137.369565 0.0375,136.204348 0.0375,134.456522 L0.0375,102.121739 C0.0375,100.373913 1.20178571,99.2086957 2.94821429,99.2086957 L63.7821429,99.2086957 C65.5285714,99.2086957 66.6928571,100.373913 66.6928571,102.121739 C66.6928571,103.869565 65.5285714,105.034783 63.7821429,105.034783 L5.85892857,105.034783 L5.85892857,131.543478 L97.8375,131.543478 C99.5839286,131.543478 100.748214,132.708696 100.748214,134.456522 C100.748214,136.204348 99.2928571,137.369565 97.8375,137.369565 L97.8375,137.369565 Z" id="Shape" fill="#67597A"></path>
                            <path d="M34.9660714,121.347826 L17.5017857,121.347826 C15.7553571,121.347826 14.5910714,120.182609 14.5910714,118.434783 C14.5910714,116.686957 15.7553571,115.521739 17.5017857,115.521739 L34.9660714,115.521739 C36.7125,115.521739 37.8767857,116.686957 37.8767857,118.434783 C37.8767857,119.891304 36.7125,121.347826 34.9660714,121.347826 L34.9660714,121.347826 Z" id="Shape" fill="#ABA1B4"></path>
                            <path d="M67.8571429,87.8478261 L2.94821429,87.8478261 C1.20178571,87.8478261 0.0375,86.6826087 0.0375,84.9347826 L0.0375,52.8913043 C0.0375,51.1434783 1.20178571,49.9782609 2.94821429,49.9782609 L97.8375,49.9782609 C99.5839286,49.9782609 100.748214,51.1434783 100.748214,52.8913043 L100.748214,66.2913043 C100.748214,68.0391304 99.5839286,69.2043478 97.8375,69.2043478 C96.0910714,69.2043478 94.9267857,68.0391304 94.9267857,66.2913043 L94.9267857,55.8043478 L5.85892857,55.8043478 L5.85892857,82.3130435 L67.8571429,82.3130435 C69.6035714,82.3130435 70.7678571,83.4782609 70.7678571,85.226087 C70.7678571,86.6826087 69.6035714,87.8478261 67.8571429,87.8478261 L67.8571429,87.8478261 Z" id="Shape" fill="#67597A"></path>
                            <path d="M34.9660714,71.826087 L17.5017857,71.826087 C15.7553571,71.826087 14.5910714,70.6608696 14.5910714,68.9130435 C14.5910714,67.1652174 15.7553571,66 17.5017857,66 L34.9660714,66 C36.7125,66 37.8767857,67.1652174 37.8767857,68.9130435 C37.8767857,70.6608696 36.7125,71.826087 34.9660714,71.826087 L34.9660714,71.826087 Z" id="Shape" fill="#ABA1B4"></path>
                            <path d="M97.8375,38.6173913 L2.94821429,38.6173913 C1.20178571,38.6173913 0.0375,37.4521739 0.0375,35.7043478 L0.0375,3.36956522 C0.0375,1.62173913 1.20178571,0.456521739 2.94821429,0.456521739 L97.8375,0.456521739 C99.5839286,0.456521739 100.748214,1.62173913 100.748214,3.36956522 L100.748214,35.7043478 C100.748214,37.1608696 99.2928571,38.6173913 97.8375,38.6173913 L97.8375,38.6173913 Z M5.85892857,32.7913043 L94.9267857,32.7913043 L94.9267857,6.2826087 L5.85892857,6.2826087 L5.85892857,32.7913043 L5.85892857,32.7913043 Z" id="Shape" fill="#67597A"></path>
                            <path d="M34.9660714,22.3043478 L17.5017857,22.3043478 C15.7553571,22.3043478 14.5910714,21.1391304 14.5910714,19.3913043 C14.5910714,17.6434783 15.7553571,16.4782609 17.5017857,16.4782609 L34.9660714,16.4782609 C36.7125,16.4782609 37.8767857,17.6434783 37.8767857,19.3913043 C37.8767857,21.1391304 36.7125,22.3043478 34.9660714,22.3043478 L34.9660714,22.3043478 Z" id="Shape" fill="#ABA1B4"></path>
                            <ellipse id="Oval" fill="#ABA1B4" cx="78.3357143" cy="19.3913043" rx="4.36607143" ry="4.36956522"></ellipse>
                            <path d="M99.0017857,137.369565 C78.6267857,137.369565 62.3267857,120.765217 62.3267857,100.665217 C62.3267857,80.273913 78.9178571,63.9608696 99.0017857,63.9608696 C119.376786,63.9608696 135.676786,80.5652174 135.676786,100.665217 C135.676786,120.765217 119.085714,137.369565 99.0017857,137.369565 L99.0017857,137.369565 Z M99.0017857,69.4956522 C81.8285714,69.4956522 67.8571429,83.4782609 67.8571429,100.665217 C67.8571429,117.852174 81.8285714,131.543478 98.7107143,131.543478 C115.883929,131.543478 129.564286,117.56087 129.564286,100.665217 C129.855357,83.4782609 115.883929,69.4956522 99.0017857,69.4956522 L99.0017857,69.4956522 Z" id="Shape" fill="#67597A"></path>
                            <path d="M89.1053571,114.93913 L88.5232143,114.93913 C87.65,114.647826 87.0678571,114.356522 86.4857143,113.482609 L78.0446429,98.626087 C77.1714286,97.1695652 77.7535714,95.4217391 79.2089286,94.5478261 C80.6642857,93.673913 82.4107143,94.2565217 83.2839286,95.7130435 L89.9785714,107.365217 L115.010714,86.3913043 C116.175,85.226087 118.2125,85.5173913 119.085714,86.6826087 C120.25,87.8478261 119.958929,89.8869565 118.794643,90.7608696 L91.1428571,114.065217 C90.5607143,114.93913 89.9785714,114.93913 89.1053571,114.93913 L89.1053571,114.93913 Z" id="Shape" fill="#819FAD"></path>
                        </g>
                    </g>
                </g>
            </g>
        </g>
    </g>
</svg>