<?xml version="1.0" encoding="UTF-8" standalone="no"?>
<svg width="122px" height="122px" viewBox="0 0 122 122" version="1.1" xmlns="http://www.w3.org/2000/svg" xmlns:xlink="http://www.w3.org/1999/xlink" xmlns:sketch="http://www.bohemiancoding.com/sketch/ns">
    <!-- Generator: Sketch 3.5.2 (25235) - http://www.bohemiancoding.com/sketch -->
    <title>acuracy icon</title>
    <desc>Created with Sketch.</desc>
    <defs></defs>
    <g id="Symbols" stroke="none" stroke-width="1" fill="none" fill-rule="evenodd" sketch:type="MSPage">
        <g id="acuracy-icon" sketch:type="MSArtboardGroup">
            <g id="server-validation" sketch:type="MSLayerGroup" transform="translate(11.000000, 10.000000)">
                <g id="Group" sketch:type="MSShapeGroup">
                    <path d="M72.6587316,101.534026 L2.18948267,101.534026 C0.892502626,101.534026 0.0278492647,100.672779 0.0278492647,99.3809074 L0.0278492647,75.4812854 C0.0278492647,74.189414 0.892502626,73.3281664 2.18948267,73.3281664 L47.3676208,73.3281664 C48.6646008,73.3281664 49.5292542,74.189414 49.5292542,75.4812854 C49.5292542,76.7731569 48.6646008,77.6344045 47.3676208,77.6344045 L4.35111607,77.6344045 L4.35111607,97.2277883 L72.6587316,97.2277883 C73.9557117,97.2277883 74.820365,98.0890359 74.820365,99.3809074 C74.820365,100.672779 73.7395483,101.534026 72.6587316,101.534026 L72.6587316,101.534026 Z" id="Shape" fill="#67597A"></path>
                    <path d="M25.9674501,89.6918715 L12.9976497,89.6918715 C11.7006696,89.6918715 10.8360163,88.8306238 10.8360163,87.5387524 C10.8360163,86.2468809 11.7006696,85.3856333 12.9976497,85.3856333 L25.9674501,85.3856333 C27.2644301,85.3856333 28.1290835,86.2468809 28.1290835,87.5387524 C28.1290835,88.6153119 27.2644301,89.6918715 25.9674501,89.6918715 L25.9674501,89.6918715 Z" id="Shape" fill="#ABA1B4"></path>
                    <path d="M50.3939076,64.9310019 L2.18948267,64.9310019 C0.892502626,64.9310019 0.0278492647,64.0697543 0.0278492647,62.7778828 L0.0278492647,39.0935728 C0.0278492647,37.8017013 0.892502626,36.9404537 2.18948267,36.9404537 L72.6587316,36.9404537 C73.9557117,36.9404537 74.820365,37.8017013 74.820365,39.0935728 L74.820365,48.9979206 C74.820365,50.2897921 73.9557117,51.1510397 72.6587316,51.1510397 C71.3617516,51.1510397 70.4970982,50.2897921 70.4970982,48.9979206 L70.4970982,41.2466919 L4.35111607,41.2466919 L4.35111607,60.8400756 L50.3939076,60.8400756 C51.6908876,60.8400756 52.555541,61.7013233 52.555541,62.9931947 C52.555541,64.0697543 51.6908876,64.9310019 50.3939076,64.9310019 L50.3939076,64.9310019 Z" id="Shape" fill="#67597A"></path>
                    <path d="M25.9674501,53.0888469 L12.9976497,53.0888469 C11.7006696,53.0888469 10.8360163,52.2275992 10.8360163,50.9357278 C10.8360163,49.6438563 11.7006696,48.7826087 12.9976497,48.7826087 L25.9674501,48.7826087 C27.2644301,48.7826087 28.1290835,49.6438563 28.1290835,50.9357278 C28.1290835,52.2275992 27.2644301,53.0888469 25.9674501,53.0888469 L25.9674501,53.0888469 Z" id="Shape" fill="#ABA1B4"></path>
                    <path d="M72.6587316,28.5432892 L2.18948267,28.5432892 C0.892502626,28.5432892 0.0278492647,27.6820416 0.0278492647,26.3901701 L0.0278492647,2.4905482 C0.0278492647,1.19867675 0.892502626,0.337429112 2.18948267,0.337429112 L72.6587316,0.337429112 C73.9557117,0.337429112 74.820365,1.19867675 74.820365,2.4905482 L74.820365,26.3901701 C74.820365,27.4667297 73.7395483,28.5432892 72.6587316,28.5432892 L72.6587316,28.5432892 Z M4.35111607,24.237051 L70.4970982,24.237051 L70.4970982,4.6436673 L4.35111607,4.6436673 L4.35111607,24.237051 L4.35111607,24.237051 Z" id="Shape" fill="#67597A"></path>
                    <path d="M25.9674501,16.4858223 L12.9976497,16.4858223 C11.7006696,16.4858223 10.8360163,15.6245747 10.8360163,14.3327032 C10.8360163,13.0408318 11.7006696,12.1795841 12.9976497,12.1795841 L25.9674501,12.1795841 C27.2644301,12.1795841 28.1290835,13.0408318 28.1290835,14.3327032 C28.1290835,15.6245747 27.2644301,16.4858223 25.9674501,16.4858223 L25.9674501,16.4858223 Z" id="Shape" fill="#ABA1B4"></path>
                    <ellipse id="Oval" fill="#ABA1B4" cx="58.1757878" cy="14.3327032" rx="3.24245011" ry="3.22967864"></ellipse>
                    <path d="M73.523385,101.534026 C58.3919512,101.534026 46.2868041,89.2612476 46.2868041,74.4047259 C46.2868041,59.3328922 58.6081145,47.2754253 73.523385,47.2754253 C88.6548188,47.2754253 100.759966,59.5482042 100.759966,74.4047259 C100.759966,89.2612476 88.4386555,101.534026 73.523385,101.534026 L73.523385,101.534026 Z M73.523385,51.3663516 C60.7697479,51.3663516 50.3939076,61.7013233 50.3939076,74.4047259 C50.3939076,87.1081285 60.7697479,97.2277883 73.3072216,97.2277883 C86.0608587,97.2277883 96.2205357,86.8928166 96.2205357,74.4047259 C96.4366991,61.7013233 86.0608587,51.3663516 73.523385,51.3663516 L73.523385,51.3663516 Z" id="Shape" fill="#67597A"></path>
                    <path d="M66.1738314,84.9550095 L65.7415047,84.9550095 C65.0930147,84.7396975 64.660688,84.5243856 64.2283613,83.8784499 L57.9596245,72.8975425 C57.3111345,71.820983 57.7434611,70.5291115 58.8242778,69.8831758 C59.9050945,69.2372401 61.2020746,69.6678639 61.8505646,70.7444234 L66.8223214,79.3568998 L85.4123687,63.8544423 C86.2770221,62.9931947 87.7901654,63.2085066 88.4386555,64.0697543 C89.3033088,64.9310019 89.0871455,66.4381853 88.2224921,67.084121 L67.6869748,84.3090737 C67.2546481,84.9550095 66.8223214,84.9550095 66.1738314,84.9550095 L66.1738314,84.9550095 Z" id="Shape" fill="#819FAD"></path>
                </g>
            </g>
        </g>
    </g>
</svg>