<?xml version="1.0" encoding="UTF-8" standalone="no"?>
<svg width="122px" height="122px" viewBox="0 0 122 122" version="1.1" xmlns="http://www.w3.org/2000/svg" xmlns:xlink="http://www.w3.org/1999/xlink" xmlns:sketch="http://www.bohemiancoding.com/sketch/ns">
    <!-- Generator: Sketch 3.5.2 (25235) - http://www.bohemiancoding.com/sketch -->
    <title>demo</title>
    <desc>Created with Sketch.</desc>
    <defs></defs>
    <g id="Symbols" stroke="none" stroke-width="1" fill="none" fill-rule="evenodd" sketch:type="MSPage">
        <g id="demo" sketch:type="MSArtboardGroup">
            <g id="monitor" sketch:type="MSLayerGroup" transform="translate(6.000000, 16.000000)" stroke="#67597A">
                <rect id="Rectangle-38" stroke-width="4.5" sketch:type="MSShapeGroup" x="0" y="0" width="100.21978" height="70.4" rx="10"></rect>
                <rect id="Rectangle-39" stroke-width="3.5" sketch:type="MSShapeGroup" x="0" y="12.5714286" width="99.7099991" height="45.2571429"></rect>
                <polygon id="Polygon-1" stroke-width="4.5" sketch:type="MSShapeGroup" transform="translate(49.618352, 73.228465) scale(1, -1) translate(-49.618352, -73.228465) " points="61.0883522 68.4576075 58.7039553 77.9993219 40.5065457 77.9993219 38.1483516 68.4576075 "></polygon>
                <rect id="Rectangle-40" stroke-width="3.5" fill="#FFFFFF" sketch:type="MSShapeGroup" x="30" y="76" width="39.5800018" height="13.3100004" rx="3"></rect>
                <path d="M99.5934066,67.2571429 L113.373626,81.0857143" id="Line" stroke-width="4.5" stroke-linecap="round" sketch:type="MSShapeGroup"></path>
                <ellipse id="Oval-17" stroke-width="4.5" fill="#FFFFFF" sketch:type="MSShapeGroup" cx="87.9428533" cy="55.6914276" rx="16.9120879" ry="16.9714286"></ellipse>
            </g>
            <g id="search-bar" sketch:type="MSLayerGroup" transform="translate(29.000000, 49.000000)">
                <path d="M0,5.78571429 L44.4489796,5.78571429" id="Line-1" stroke="#E1DEE9" stroke-width="1.3041" stroke-linecap="square" sketch:type="MSShapeGroup"></path>
                <text id="loan-ID,-location,-s" sketch:type="MSTextLayer" font-family="Avenir Next" font-size="3.30100312" font-weight="526" letter-spacing="0.0825250804" fill="#E1DEE9">
                    <tspan x="2.77555756e-17" y="3">loan ID, location, status </tspan>
                </text>
                <g id="search-button" transform="translate(47.081633, 0.465714)" fill="#6E8894" sketch:type="MSShapeGroup">
                    <g id="Hero-button">
                        <rect x="0" y="0" width="5.63265306" height="5.51020408" rx="0.550167188"></rect>
                    </g>
                </g>
            </g>
            <g id="How-can-I-assit-you-today" sketch:type="MSLayerGroup" transform="translate(29.000000, 43.000000)" font-weight="633" font-family="Avenir Next" letter-spacing="0.100000001" fill="#544E61" font-size="4">
                <text id="How-can-I-assist-you" sketch:type="MSTextLayer">
                    <tspan x="0" y="4">How can I assist you today?</tspan>
                </text>
            </g>
            <g id="Talk-with-us" sketch:type="MSLayerGroup" transform="translate(84.000000, 36.000000)">
                <text id="Chat-Now" sketch:type="MSTextLayer" font-family="Avenir Next" font-size="2" font-weight="526" sketch:alignment="middle" fill="#544E61">
                    <tspan x="3.37160976" y="2.5">Chat Now</tspan>
                </text>
                <g id="chat-logo" transform="translate(0.000000, 1.000000)" stroke-width="0.625" sketch:type="MSShapeGroup">
                    <path d="M0,0.0806465149 C0,0.0361066746 0.0347137451,0 0.0859375,0 L1.9140625,0 C1.96152447,0 2,0.0370788574 2,0.0806465149 L2,1.41935349 C2,1.46389333 1.95895585,1.5 1.91184835,1.5 L1.04479064,1.5 L0.709237658,1.93047714 C0.679308006,1.96887356 0.655045229,1.95385742 0.655045229,1.921875 L0.655045229,1.5 L0.0803214029,1.5 C0.035961117,1.5 0,1.46292114 0,1.41935349 L0,0.0806465149 Z" id="Path-12" stroke="#544E61" transform="translate(1.000000, 1.000000) scale(-1, 1) translate(-1.000000, -1.000000) "></path>
                    <path id="Line" stroke="#67597A" stroke-linecap="square" d="M0.238095238,0.45 L1,0.45"></path>
                    <path id="Line" stroke="#67597A" stroke-linecap="square" d="M0.238095238,0.85 L1.38095238,0.85"></path>
                </g>
            </g>
            <g id="logo" sketch:type="MSLayerGroup" transform="translate(14.000000, 36.000000)">
                <text id="LOGO" sketch:type="MSTextLayer" font-family="Futura" font-size="4" font-style="condensed" font-weight="686" fill="#4A4A4A">
                    <tspan x="5.54778555" y="3.625">LOGO</tspan>
                </text>
                <ellipse id="Oval-40" fill="#6E8894" sketch:type="MSShapeGroup" cx="1.79487179" cy="2.11538462" rx="1.79487179" ry="2.11538462"></ellipse>
            </g>
        </g>
    </g>
</svg>