<?xml version="1.0" encoding="UTF-8" standalone="no"?>
<svg width="122px" height="122px" viewBox="0 0 122 122" version="1.1" xmlns="http://www.w3.org/2000/svg" xmlns:xlink="http://www.w3.org/1999/xlink" xmlns:sketch="http://www.bohemiancoding.com/sketch/ns">
    <!-- Generator: Sketch 3.5.2 (25235) - http://www.bohemiancoding.com/sketch -->
    <title>demo</title>
    <desc>Created with Sketch.</desc>
    <defs></defs>
    <g id="Symbols" stroke="none" stroke-width="1" fill="none" fill-rule="evenodd" sketch:type="MSPage">
        <g id="demo" sketch:type="MSArtboardGroup">
            <g id="monitor" sketch:type="MSLayerGroup" transform="translate(6.000000, 16.000000)" stroke="#67597A">
                <rect id="Rectangle-38" stroke-width="4.5" sketch:type="MSShapeGroup" x="0" y="0" width="100.21978" height="70.4" rx="10"></rect>
                <rect id="Rectangle-39" stroke-width="3.5" sketch:type="MSShapeGroup" x="0" y="12.5714286" width="99.7099991" height="45.2571429"></rect>
                <polygon id="Polygon-1" stroke-width="4.5" sketch:type="MSShapeGroup" transform="translate(49.618352, 73.228465) scale(1, -1) translate(-49.618352, -73.228465) " points="61.0883522 68.4576075 58.7039553 77.9993219 40.5065457 77.9993219 38.1483516 68.4576075 "></polygon>
                <rect id="Rectangle-40" stroke-width="3.5" fill="#FFFFFF" sketch:type="MSShapeGroup" x="30" y="76" width="39.5800018" height="13.3100004" rx="3"></rect>
                <path d="M99.5934066,67.2571429 L113.373626,81.0857143" id="Line" stroke-width="4.5" stroke-linecap="round" sketch:type="MSShapeGroup"></path>
                <ellipse id="Oval-17" stroke-width="4.5" fill="#FFFFFF" sketch:type="MSShapeGroup" cx="87.9428533" cy="55.6914276" rx="16.9120879" ry="16.9714286"></ellipse>
            </g>
            <g id="search-bar" sketch:type="MSLayerGroup" transform="translate(36.000000, 47.000000)">
                <path d="M0,4.5 L34.5714286,4.5" id="Line-1" stroke="#E1DEE9" stroke-linecap="square" sketch:type="MSShapeGroup"></path>
                <text id="loan-ID,-location,-s" sketch:type="MSTextLayer" font-family="Avenir Next" font-size="2.53125" font-weight="526" letter-spacing="0.063281253" fill="#E1DEE9">
                    <tspan x="0.19047619" y="3">loan ID, location, status </tspan>
                </text>
                <g id="search-button" transform="translate(36.619048, 1.139999)" fill="#6E8894" sketch:type="MSShapeGroup">
                    <g id="Hero-button">
                        <rect x="0" y="0" width="4.38095238" height="4.28571429" rx="0.421875"></rect>
                    </g>
                </g>
            </g>
            <g id="How-can-I-assit-you-today" sketch:type="MSLayerGroup" transform="translate(36.000000, 42.000000)" font-weight="633" font-family="Avenir Next" letter-spacing="0.063281253" fill="#544E61" font-size="2.53125">
                <text id="How-can-I-assist-you" sketch:type="MSTextLayer">
                    <tspan x="0" y="3">How can I assist you today?</tspan>
                </text>
            </g>
            <g id="Talk-with-us" sketch:type="MSLayerGroup" transform="translate(90.000000, 37.000000)">
                <text id="Chat-Now" sketch:type="MSTextLayer" font-family="Avenir Next" font-size="1.125" font-weight="526" sketch:alignment="middle" fill="#544E61">
                    <tspan x="2.38585976" y="1.25">Chat Now</tspan>
                </text>
                <g id="chat-logo" transform="translate(0.000000, 0.260870)" stroke-width="0.5" sketch:type="MSShapeGroup">
                    <path d="M0,0.0701274043 C0,0.0313971083 0.0379832198,0 0.0660251524,0 L1.47056021,0 C1.5070249,0 1.53658537,0.0322424847 1.53658537,0.0701274043 L1.53658537,1.23422042 C1.53658537,1.27295072 1.50505144,1.30434783 1.4688591,1.30434783 L0.802705001,1.30434783 L0.5399835,1.68581755 C0.519705237,1.71526144 0.503266456,1.69900645 0.503266456,1.67119565 L0.503266456,1.30434783 L0.0786353838,1.30434783 C0.0352062605,1.30434783 0,1.27210534 0,1.23422042 L0,0.0701274043 Z" id="Path-12" stroke="#544E61" transform="translate(0.768293, 0.869565) scale(-1, 1) translate(-0.768293, -0.869565) "></path>
                    <path id="Line" stroke="#67597A" stroke-linecap="square" d="M0.182926829,0.391304348 L0.768292683,0.391304348"></path>
                    <path id="Line" stroke="#67597A" stroke-linecap="square" d="M0.182926829,0.739130435 L1.06097561,0.739130435"></path>
                </g>
            </g>
            <g id="logo" sketch:type="MSLayerGroup" transform="translate(15.000000, 36.000000)">
                <text id="LOGO" sketch:type="MSTextLayer" font-family="Futura" font-size="2.28838338" font-style="condensed" font-weight="686" fill="#4A4A4A">
                    <tspan x="4.35897436" y="2.5">LOGO</tspan>
                </text>
                <ellipse id="Oval-40" fill="#6E8894" sketch:type="MSShapeGroup" cx="1.41025641" cy="1.69230769" rx="1.41025641" ry="1.69230769"></ellipse>
            </g>
        </g>
    </g>
</svg>