<?xml version="1.0" encoding="UTF-8" standalone="no"?>
<svg width="122px" height="122px" viewBox="0 0 122 122" version="1.1" xmlns="http://www.w3.org/2000/svg" xmlns:xlink="http://www.w3.org/1999/xlink" xmlns:sketch="http://www.bohemiancoding.com/sketch/ns">
    <!-- Generator: Sketch 3.5.2 (25235) - http://www.bohemiancoding.com/sketch -->
    <title>service_icon</title>
    <desc>Created with Sketch.</desc>
    <defs></defs>
    <g id="Symbols" stroke="none" stroke-width="1" fill="none" fill-rule="evenodd" sketch:type="MSPage">
        <g id="service_icon" sketch:type="MSArtboardGroup">
            <g id="Group" sketch:type="MSLayerGroup" transform="translate(66.000000, 59.000000)"></g>
            <path d="M85.1738314,94.9550095 L84.7415047,94.9550095 C84.0930147,94.7396975 83.660688,94.5243856 83.2283613,93.8784499 L76.9596245,82.8975425 C76.3111345,81.820983 76.7434611,80.5291115 77.8242778,79.8831758 C78.9050945,79.2372401 80.2020746,79.6678639 80.8505646,80.7444234 L85.8223214,89.3568998 L104.412369,73.8544423 C105.277022,72.9931947 106.790165,73.2085066 107.438655,74.0697543 C108.303309,74.9310019 108.087145,76.4381853 107.222492,77.084121 L86.6869748,94.3090737 C86.2546481,94.9550095 85.8223214,94.9550095 85.1738314,94.9550095 L85.1738314,94.9550095 Z" id="Shape" fill="#819FAD" sketch:type="MSShapeGroup"></path>
            <g id="chat-logo" sketch:type="MSLayerGroup" transform="translate(49.000000, 71.500000) scale(-1, 1) translate(-49.000000, -71.500000) translate(10.000000, 36.000000)"></g>
            <g id="chat-logo" sketch:type="MSLayerGroup" transform="translate(55.500000, 64.500000) scale(-1, 1) translate(-55.500000, -64.500000) translate(10.000000, 22.000000)" stroke="#67597A" stroke-width="4.5" fill="#FFFFFF">
                <path d="M78.0001632,14.0015074 L78.0001632,13.9913592 C78.0001632,6.2641449 71.731477,0 64.0000092,0 L14.9990803,0 C7.26700881,0 0.998926394,6.26432641 0.998926394,13.9921322 C0.998926394,13.9921322 0.998926394,32.8345938 0.998926394,40.751137 C0.998926394,41.9956507 78.0001632,23.1625642 78.0001632,14.0015074 Z" id="Path-12" sketch:type="MSShapeGroup"></path>
                <path d="M91.0001632,28.0015074 C91.0001632,20.2686884 84.731477,14 77.0000092,14 L27.9990803,14 C20.2670088,14 13.9989264,20.2705549 13.9989264,28.0015074 L13.9989264,55.4846779 C13.9989264,63.2174969 20.2720051,69.4861853 27.997525,69.4861853 L58.7750776,69.4861853 L74.0617026,84.2856726 C74.4586927,84.6700119 74.7805168,84.5345445 74.7805168,83.9887018 L74.7805168,69.4861853 L77.0017805,69.4861853 C84.7328737,69.4861853 91.0001632,63.2156304 91.0001632,55.4846779 L91.0001632,28.0015074 Z" id="Path-12" sketch:type="MSShapeGroup"></path>
            </g>
            <g id="Group-2" sketch:type="MSLayerGroup" transform="translate(65.000000, 57.000000)">
                <circle id="Oval-11" fill="#FFFFFF" sketch:type="MSShapeGroup" cx="27" cy="27" r="24"></circle>
                <path d="M27.523385,54.5340265 C12.3919512,54.5340265 0.286804097,42.2612476 0.286804097,27.4047259 C0.286804097,12.3328922 12.6081145,0.275425331 27.523385,0.275425331 C42.6548188,0.275425331 54.7599659,12.5482042 54.7599659,27.4047259 C54.7599659,42.2612476 42.4386555,54.5340265 27.523385,54.5340265 L27.523385,54.5340265 Z M27.523385,4.36635161 C14.7697479,4.36635161 4.39390756,14.7013233 4.39390756,27.4047259 C4.39390756,40.1081285 14.7697479,50.2277883 27.3072216,50.2277883 C40.0608587,50.2277883 50.2205357,39.8928166 50.2205357,27.4047259 C50.4366991,14.7013233 40.0608587,4.36635161 27.523385,4.36635161 L27.523385,4.36635161 Z" id="Shape" fill="#67597A" sketch:type="MSShapeGroup"></path>
            </g>
            <path d="M85.1738314,94.9550095 L84.7415047,94.9550095 C84.0930147,94.7396975 83.660688,94.5243856 83.2283613,93.8784499 L76.9596245,82.8975425 C76.3111345,81.820983 76.7434611,80.5291115 77.8242778,79.8831758 C78.9050945,79.2372401 80.2020746,79.6678639 80.8505646,80.7444234 L85.8223214,89.3568998 L104.412369,73.8544423 C105.277022,72.9931947 106.790165,73.2085066 107.438655,74.0697543 C108.303309,74.9310019 108.087145,76.4381853 107.222492,77.084121 L86.6869748,94.3090737 C86.2546481,94.9550095 85.8223214,94.9550095 85.1738314,94.9550095 L85.1738314,94.9550095 Z" id="Shape" fill="#819FAD" sketch:type="MSShapeGroup"></path>
        </g>
    </g>
</svg>